<svg width="3200" height="2400" viewBox="0 0 3200 2400" fill="none" xmlns="http://www.w3.org/2000/svg">
<g clip-path="url(#clip0_102_2)">
<g opacity="0.9" filter="url(#filter0_f_102_2)">
<path d="M1346.55 -83.3104C1340.93 -3.98404 1400.83 61.3892 1480.34 62.7047L1788.32 67.7999C1867.83 69.1154 1936.85 5.87507 1942.47 -73.4513V-73.4513C1948.1 -152.778 1888.2 -218.151 1808.68 -219.466L1500.71 -224.562C1421.2 -225.877 1352.18 -162.637 1346.55 -83.3104V-83.3104Z" fill="url(#paint0_radial_102_2)"/>
<path d="M1346.55 -83.3104C1340.93 -3.98404 1400.83 61.3892 1480.34 62.7047L1788.32 67.7999C1867.83 69.1154 1936.85 5.87507 1942.47 -73.4513V-73.4513C1948.1 -152.778 1888.2 -218.151 1808.68 -219.466L1500.71 -224.562C1421.2 -225.877 1352.18 -162.637 1346.55 -83.3104V-83.3104Z" stroke="#00E29A" stroke-width="58.0733"/>
</g>
<g style="mix-blend-mode:color" opacity="0.9" filter="url(#filter1_f_102_2)">
<rect width="551.117" height="270.34" rx="135.17" transform="matrix(0.999033 -0.0439745 -0.185365 -0.98267 1249.04 32.1665)" fill="url(#paint1_radial_102_2)"/>
</g>
<g style="mix-blend-mode:screen" opacity="0.9" filter="url(#filter2_f_102_2)">
<path d="M1430.3 -39.3653C1509.62 81.0805 1689.48 160.962 1832.03 139.056L2249.9 74.8384C2392.44 52.9318 2443.7 -62.4676 2364.37 -182.913V-182.913C2285.05 -303.359 2105.18 -383.241 1962.64 -361.335L1544.77 -297.117C1402.22 -275.211 1350.97 -159.811 1430.3 -39.3653V-39.3653Z" fill="url(#paint2_radial_102_2)"/>
</g>
<g opacity="0.9" filter="url(#filter3_f_102_2)">
<path d="M1108.85 -161.808C997.353 -98.5132 1003.1 -7.68955 1121.68 41.0517V41.0517C1240.26 89.793 1426.77 77.9946 1538.27 14.6994L1558.21 3.38035C1669.7 -59.9149 1663.95 -150.739 1545.37 -199.48V-199.48C1426.79 -248.221 1240.28 -236.423 1128.79 -173.127L1108.85 -161.808Z" fill="url(#paint3_angular_102_2)"/>
</g>
<g style="mix-blend-mode:lighten" opacity="0.9" filter="url(#filter4_f_102_2)">
<rect width="799.72" height="217.377" rx="108.689" transform="matrix(0.999033 -0.0439745 -0.185365 -0.98267 806.294 8.60815)" fill="#FF4400"/>
</g>
</g>
<defs>
<filter id="filter0_f_102_2" x="1040.31" y="-530.325" width="1208.42" height="903.888" filterUnits="userSpaceOnUse" color-interpolation-filters="sRGB">
<feFlood flood-opacity="0" result="BackgroundImageFix"/>
<feBlend mode="normal" in="SourceGraphic" in2="BackgroundImageFix" result="shape"/>
<feGaussianBlur stdDeviation="138.387" result="effect1_foregroundBlur_102_2"/>
</filter>
<filter id="filter1_f_102_2" x="955.449" y="-518.123" width="1087.66" height="810.69" filterUnits="userSpaceOnUse" color-interpolation-filters="sRGB">
<feFlood flood-opacity="0" result="BackgroundImageFix"/>
<feBlend mode="normal" in="SourceGraphic" in2="BackgroundImageFix" result="shape"/>
<feGaussianBlur stdDeviation="133.104" result="effect1_foregroundBlur_102_2"/>
</filter>
<filter id="filter2_f_102_2" x="1013.44" y="-744.477" width="1767.78" height="1266.68" filterUnits="userSpaceOnUse" color-interpolation-filters="sRGB">
<feFlood flood-opacity="0" result="BackgroundImageFix"/>
<feBlend mode="normal" in="SourceGraphic" in2="BackgroundImageFix" result="shape"/>
<feGaussianBlur stdDeviation="189.763" result="effect1_foregroundBlur_102_2"/>
</filter>
<filter id="filter3_f_102_2" x="683.094" y="-575.28" width="1300.86" height="992.131" filterUnits="userSpaceOnUse" color-interpolation-filters="sRGB">
<feFlood flood-opacity="0" result="BackgroundImageFix"/>
<feBlend mode="normal" in="SourceGraphic" in2="BackgroundImageFix" result="shape"/>
<feGaussianBlur stdDeviation="172.875" result="effect1_foregroundBlur_102_2"/>
</filter>
<filter id="filter4_f_102_2" x="525.222" y="-494.551" width="1320.8" height="757.541" filterUnits="userSpaceOnUse" color-interpolation-filters="sRGB">
<feFlood flood-opacity="0" result="BackgroundImageFix"/>
<feBlend mode="normal" in="SourceGraphic" in2="BackgroundImageFix" result="shape"/>
<feGaussianBlur stdDeviation="129.526" result="effect1_foregroundBlur_102_2"/>
</filter>
<radialGradient id="paint0_radial_102_2" cx="0" cy="0" r="1" gradientUnits="userSpaceOnUse" gradientTransform="translate(1513.06 -77.8262) rotate(-84.7101) scale(627.761 1293.77)">
<stop stop-color="#5AE9FD"/>
<stop offset="1" stop-color="#5AE9FD" stop-opacity="0"/>
</radialGradient>
<radialGradient id="paint1_radial_102_2" cx="0" cy="0" r="1" gradientUnits="userSpaceOnUse" gradientTransform="translate(275.558 135.17) rotate(90) scale(135.17 275.558)">
<stop stop-color="#38FF70"/>
<stop offset="1" stop-color="#4AE074" stop-opacity="0.65"/>
</radialGradient>
<radialGradient id="paint2_radial_102_2" cx="0" cy="0" r="1" gradientUnits="userSpaceOnUse" gradientTransform="translate(1897.33 -111.139) rotate(-123.368) scale(261.134 1365.83)">
<stop stop-color="#8B78FF"/>
<stop offset="1" stop-color="#6349FF" stop-opacity="0.37"/>
</radialGradient>
<radialGradient id="paint3_angular_102_2" cx="0" cy="0" r="1" gradientUnits="userSpaceOnUse" gradientTransform="translate(1333.53 -79.2141) rotate(-29.5836) scale(243.604 182.75)">
<stop stop-color="#FFE072"/>
<stop offset="1" stop-color="#FFD84B" stop-opacity="0"/>
</radialGradient>
<clipPath id="clip0_102_2">
<rect width="3200" height="2400" fill="white"/>
</clipPath>
</defs>
</svg>
