<svg xmlns="http://www.w3.org/2000/svg" viewBox="0 0 24 24" fill="white"><path d="M12 24C5.383 24 0 18.617 0 12S5.383 0 12 0s12 5.383 12 12-5.383 12-12 12zm0-23C5.935 1 1 5.935 1 12s4.935 11 11 11 11-4.935 11-11S18.065 1 12 1z"/><path d="M11.991 16.999A4.97 4.97 0 0 1 9.5 16.33 5.005 5.005 0 0 1 7.67 9.5a5.005 5.005 0 0 1 6.83-1.83 5.005 5.005 0 0 1 1.83 6.83 5.004 5.004 0 0 1-4.339 2.499zm.016-8.998A4.004 4.004 0 0 0 8.535 10 4.006 4.006 0 0 0 10 15.464 4.005 4.005 0 0 0 15.465 14 4.006 4.006 0 0 0 14 8.536a3.971 3.971 0 0 0-1.993-.535z"/><path d="M22.5 8H12a.5.5 0 010-1h10.5a.5.5 0 010 1zM8.103 14.75a.5.5 0 01-.432-.248l-5.103-8.75a.499.499 0 11.864-.504l5.103 8.75a.499.499 0 01-.432.752zM11 23.5a.5.5 0 01-.436-.744l4.897-8.75a.5.5 0 01.873.489l-4.897 8.75A.501.501 0 0111 23.5z"/></svg>